%
M48
M72
T01C0.0354
T02C0.0394
T03C0.0400
T04C0.0472
T05C0.1260
%
T01
X14434Y6000
X15934Y6000
X15934Y10000
X17434Y10100
X14434Y10000
X17434Y14100
T02
X11684Y7900
X11184Y6900
X10684Y7900
X10184Y6900
X9684Y7900
X9184Y6900
X8684Y7900
X8184Y6900
T03
X15834Y16900
T04
X13324Y16900
X11946Y16900
X10568Y16900
X9190Y16900
X7812Y16900
X6434Y16900
X5082Y8500
X3564Y8500
T05
X7684Y4400
X12184Y4400
M30
