G75*
G70*
%OFA0B0*%
%FSLAX24Y24*%
%IPPOS*%
%LPD*%
%AMOC8*
5,1,8,0,0,1.08239X$1,22.5*
%
%ADD10C,0.0010*%
%ADD11C,0.0040*%
%ADD12C,0.0000*%
%ADD13C,0.0080*%
%ADD14C,0.0050*%
%ADD15C,0.0030*%
D10*
X004154Y012400D02*
X004156Y012456D01*
X004162Y012511D01*
X004172Y012566D01*
X004186Y012620D01*
X004203Y012673D01*
X004224Y012724D01*
X004249Y012774D01*
X004278Y012822D01*
X004310Y012867D01*
X004345Y012911D01*
X004382Y012952D01*
X004423Y012989D01*
X004467Y013024D01*
X004512Y013056D01*
X004560Y013085D01*
X004610Y013110D01*
X004661Y013131D01*
X004714Y013148D01*
X004768Y013162D01*
X004823Y013172D01*
X004878Y013178D01*
X004934Y013180D01*
X004990Y013178D01*
X005045Y013172D01*
X005100Y013162D01*
X005154Y013148D01*
X005207Y013131D01*
X005258Y013110D01*
X005308Y013085D01*
X005356Y013056D01*
X005401Y013024D01*
X005445Y012989D01*
X005486Y012952D01*
X005523Y012911D01*
X005558Y012867D01*
X005590Y012822D01*
X005619Y012774D01*
X005644Y012724D01*
X005665Y012673D01*
X005682Y012620D01*
X005696Y012566D01*
X005706Y012511D01*
X005712Y012456D01*
X005714Y012400D01*
X005712Y012344D01*
X005706Y012289D01*
X005696Y012234D01*
X005682Y012180D01*
X005665Y012127D01*
X005644Y012076D01*
X005619Y012026D01*
X005590Y011978D01*
X005558Y011933D01*
X005523Y011889D01*
X005486Y011848D01*
X005445Y011811D01*
X005401Y011776D01*
X005356Y011744D01*
X005308Y011715D01*
X005258Y011690D01*
X005207Y011669D01*
X005154Y011652D01*
X005100Y011638D01*
X005045Y011628D01*
X004990Y011622D01*
X004934Y011620D01*
X004878Y011622D01*
X004823Y011628D01*
X004768Y011638D01*
X004714Y011652D01*
X004661Y011669D01*
X004610Y011690D01*
X004560Y011715D01*
X004512Y011744D01*
X004467Y011776D01*
X004423Y011811D01*
X004382Y011848D01*
X004345Y011889D01*
X004310Y011933D01*
X004278Y011978D01*
X004249Y012026D01*
X004224Y012076D01*
X004203Y012127D01*
X004186Y012180D01*
X004172Y012234D01*
X004162Y012289D01*
X004156Y012344D01*
X004154Y012400D01*
X005964Y017905D02*
X005939Y017930D01*
X005964Y017905D02*
X005989Y017905D01*
X006014Y017930D01*
X006014Y018055D01*
X005989Y018055D02*
X006039Y018055D01*
X006087Y018055D02*
X006162Y018055D01*
X006187Y018030D01*
X006187Y017980D01*
X006162Y017955D01*
X006087Y017955D01*
X006087Y017905D02*
X006087Y018055D01*
X006234Y018005D02*
X006284Y018055D01*
X006284Y017905D01*
X006234Y017905D02*
X006334Y017905D01*
X008434Y019100D02*
X011434Y019100D01*
X011498Y019110D01*
X011562Y019124D01*
X011625Y019141D01*
X011686Y019162D01*
X011747Y019186D01*
X011806Y019214D01*
X011863Y019245D01*
X011918Y019279D01*
X011972Y019316D01*
X012023Y019356D01*
X012072Y019399D01*
X012118Y019444D01*
X012162Y019492D01*
X012203Y019543D01*
X012242Y019595D01*
X012277Y019650D01*
X012309Y019707D01*
X012338Y019765D01*
X012363Y019825D01*
X012385Y019886D01*
X012404Y019948D01*
X012419Y020012D01*
X012431Y020076D01*
X012439Y020140D01*
X012443Y020205D01*
X012444Y020270D01*
X012441Y020335D01*
X012434Y020400D01*
X012434Y021900D01*
X008434Y019100D02*
X008370Y019110D01*
X008306Y019124D01*
X008243Y019141D01*
X008182Y019162D01*
X008121Y019186D01*
X008062Y019214D01*
X008005Y019245D01*
X007950Y019279D01*
X007896Y019316D01*
X007845Y019356D01*
X007796Y019399D01*
X007750Y019444D01*
X007706Y019492D01*
X007665Y019543D01*
X007626Y019595D01*
X007591Y019650D01*
X007559Y019707D01*
X007530Y019765D01*
X007505Y019825D01*
X007483Y019886D01*
X007464Y019948D01*
X007449Y020012D01*
X007437Y020076D01*
X007429Y020140D01*
X007425Y020205D01*
X007424Y020270D01*
X007427Y020335D01*
X007434Y020400D01*
X007434Y021900D01*
X007734Y012400D02*
X007737Y012508D01*
X007745Y012616D01*
X007758Y012723D01*
X007776Y012829D01*
X007800Y012935D01*
X007829Y013039D01*
X007863Y013141D01*
X007901Y013242D01*
X007945Y013341D01*
X007994Y013437D01*
X008047Y013531D01*
X008105Y013622D01*
X008167Y013711D01*
X008233Y013796D01*
X008304Y013877D01*
X008378Y013956D01*
X008457Y014030D01*
X008538Y014101D01*
X008623Y014167D01*
X008712Y014229D01*
X008803Y014287D01*
X008897Y014340D01*
X008993Y014389D01*
X009092Y014433D01*
X009193Y014471D01*
X009295Y014505D01*
X009399Y014534D01*
X009505Y014558D01*
X009611Y014576D01*
X009718Y014589D01*
X009826Y014597D01*
X009934Y014600D01*
X010042Y014597D01*
X010150Y014589D01*
X010257Y014576D01*
X010363Y014558D01*
X010469Y014534D01*
X010573Y014505D01*
X010675Y014471D01*
X010776Y014433D01*
X010875Y014389D01*
X010971Y014340D01*
X011065Y014287D01*
X011156Y014229D01*
X011245Y014167D01*
X011330Y014101D01*
X011411Y014030D01*
X011490Y013956D01*
X011564Y013877D01*
X011635Y013796D01*
X011701Y013711D01*
X011763Y013622D01*
X011821Y013531D01*
X011874Y013437D01*
X011923Y013341D01*
X011967Y013242D01*
X012005Y013141D01*
X012039Y013039D01*
X012068Y012935D01*
X012092Y012829D01*
X012110Y012723D01*
X012123Y012616D01*
X012131Y012508D01*
X012134Y012400D01*
X012131Y012292D01*
X012123Y012184D01*
X012110Y012077D01*
X012092Y011971D01*
X012068Y011865D01*
X012039Y011761D01*
X012005Y011659D01*
X011967Y011558D01*
X011923Y011459D01*
X011874Y011363D01*
X011821Y011269D01*
X011763Y011178D01*
X011701Y011089D01*
X011635Y011004D01*
X011564Y010923D01*
X011490Y010844D01*
X011411Y010770D01*
X011330Y010699D01*
X011245Y010633D01*
X011156Y010571D01*
X011065Y010513D01*
X010971Y010460D01*
X010875Y010411D01*
X010776Y010367D01*
X010675Y010329D01*
X010573Y010295D01*
X010469Y010266D01*
X010363Y010242D01*
X010257Y010224D01*
X010150Y010211D01*
X010042Y010203D01*
X009934Y010200D01*
X009826Y010203D01*
X009718Y010211D01*
X009611Y010224D01*
X009505Y010242D01*
X009399Y010266D01*
X009295Y010295D01*
X009193Y010329D01*
X009092Y010367D01*
X008993Y010411D01*
X008897Y010460D01*
X008803Y010513D01*
X008712Y010571D01*
X008623Y010633D01*
X008538Y010699D01*
X008457Y010770D01*
X008378Y010844D01*
X008304Y010923D01*
X008233Y011004D01*
X008167Y011089D01*
X008105Y011178D01*
X008047Y011269D01*
X007994Y011363D01*
X007945Y011459D01*
X007901Y011558D01*
X007863Y011659D01*
X007829Y011761D01*
X007800Y011865D01*
X007776Y011971D01*
X007758Y012077D01*
X007745Y012184D01*
X007737Y012292D01*
X007734Y012400D01*
X007434Y021900D02*
X006973Y021766D01*
X006519Y021610D01*
X006073Y021432D01*
X005636Y021233D01*
X005210Y021012D01*
X004794Y020771D01*
X004391Y020510D01*
X004002Y020229D01*
X003626Y019930D01*
X003266Y019613D01*
X002921Y019278D01*
X002594Y018928D01*
X002283Y018561D01*
X001991Y018180D01*
X001718Y017785D01*
X001465Y017377D01*
X001232Y016957D01*
X001020Y016526D01*
X000829Y016086D01*
X000659Y015637D01*
X000512Y015179D01*
X000388Y014716D01*
X000286Y014246D01*
X000207Y013773D01*
X000152Y013296D01*
X000120Y012817D01*
X000111Y012337D01*
X000126Y011857D01*
X000164Y011378D01*
X000226Y010902D01*
X000311Y010429D01*
X000419Y009961D01*
X000549Y009499D01*
X000702Y009044D01*
X000877Y008597D01*
X001074Y008159D01*
X001291Y007731D01*
X001530Y007314D01*
X001789Y006910D01*
X002067Y006518D01*
X002363Y006141D01*
X002678Y005778D01*
X003011Y005432D01*
X003359Y005102D01*
X003724Y004789D01*
X004103Y004495D01*
X004496Y004219D01*
X004903Y003963D01*
X005321Y003728D01*
X005750Y003513D01*
X006190Y003319D01*
X006638Y003147D01*
X007094Y002997D01*
X007557Y002869D01*
X008025Y002764D01*
X008499Y002682D01*
X008975Y002624D01*
X009454Y002589D01*
X009934Y002577D01*
X010414Y002589D01*
X010893Y002624D01*
X011369Y002682D01*
X011843Y002764D01*
X012311Y002869D01*
X012774Y002997D01*
X013230Y003147D01*
X013678Y003319D01*
X014118Y003513D01*
X014547Y003728D01*
X014965Y003963D01*
X015372Y004219D01*
X015765Y004495D01*
X016144Y004789D01*
X016509Y005102D01*
X016857Y005432D01*
X017190Y005778D01*
X017505Y006141D01*
X017801Y006518D01*
X018079Y006910D01*
X018338Y007314D01*
X018577Y007731D01*
X018794Y008159D01*
X018991Y008597D01*
X019166Y009044D01*
X019319Y009499D01*
X019449Y009961D01*
X019557Y010429D01*
X019642Y010902D01*
X019704Y011378D01*
X019742Y011857D01*
X019757Y012337D01*
X019748Y012817D01*
X019716Y013296D01*
X019661Y013773D01*
X019582Y014246D01*
X019480Y014716D01*
X019356Y015179D01*
X019209Y015637D01*
X019039Y016086D01*
X018848Y016526D01*
X018636Y016957D01*
X018403Y017377D01*
X018150Y017785D01*
X017877Y018180D01*
X017585Y018561D01*
X017274Y018928D01*
X016947Y019278D01*
X016602Y019613D01*
X016242Y019930D01*
X015866Y020229D01*
X015477Y020510D01*
X015074Y020771D01*
X014658Y021012D01*
X014232Y021233D01*
X013795Y021432D01*
X013349Y021610D01*
X012895Y021766D01*
X012434Y021900D01*
X014154Y012400D02*
X014156Y012456D01*
X014162Y012511D01*
X014172Y012566D01*
X014186Y012620D01*
X014203Y012673D01*
X014224Y012724D01*
X014249Y012774D01*
X014278Y012822D01*
X014310Y012867D01*
X014345Y012911D01*
X014382Y012952D01*
X014423Y012989D01*
X014467Y013024D01*
X014512Y013056D01*
X014560Y013085D01*
X014610Y013110D01*
X014661Y013131D01*
X014714Y013148D01*
X014768Y013162D01*
X014823Y013172D01*
X014878Y013178D01*
X014934Y013180D01*
X014990Y013178D01*
X015045Y013172D01*
X015100Y013162D01*
X015154Y013148D01*
X015207Y013131D01*
X015258Y013110D01*
X015308Y013085D01*
X015356Y013056D01*
X015401Y013024D01*
X015445Y012989D01*
X015486Y012952D01*
X015523Y012911D01*
X015558Y012867D01*
X015590Y012822D01*
X015619Y012774D01*
X015644Y012724D01*
X015665Y012673D01*
X015682Y012620D01*
X015696Y012566D01*
X015706Y012511D01*
X015712Y012456D01*
X015714Y012400D01*
X015712Y012344D01*
X015706Y012289D01*
X015696Y012234D01*
X015682Y012180D01*
X015665Y012127D01*
X015644Y012076D01*
X015619Y012026D01*
X015590Y011978D01*
X015558Y011933D01*
X015523Y011889D01*
X015486Y011848D01*
X015445Y011811D01*
X015401Y011776D01*
X015356Y011744D01*
X015308Y011715D01*
X015258Y011690D01*
X015207Y011669D01*
X015154Y011652D01*
X015100Y011638D01*
X015045Y011628D01*
X014990Y011622D01*
X014934Y011620D01*
X014878Y011622D01*
X014823Y011628D01*
X014768Y011638D01*
X014714Y011652D01*
X014661Y011669D01*
X014610Y011690D01*
X014560Y011715D01*
X014512Y011744D01*
X014467Y011776D01*
X014423Y011811D01*
X014382Y011848D01*
X014345Y011889D01*
X014310Y011933D01*
X014278Y011978D01*
X014249Y012026D01*
X014224Y012076D01*
X014203Y012127D01*
X014186Y012180D01*
X014172Y012234D01*
X014162Y012289D01*
X014156Y012344D01*
X014154Y012400D01*
D11*
X008548Y014520D02*
X008343Y014520D01*
X008274Y014589D01*
X008274Y014725D01*
X008343Y014794D01*
X008548Y014794D01*
X008548Y014930D02*
X008548Y014520D01*
X008134Y014794D02*
X008066Y014794D01*
X007929Y014657D01*
X007929Y014520D02*
X007929Y014794D01*
X007788Y014725D02*
X007788Y014520D01*
X007583Y014520D01*
X007515Y014589D01*
X007583Y014657D01*
X007788Y014657D01*
X007788Y014725D02*
X007720Y014794D01*
X007583Y014794D01*
X007374Y014725D02*
X007305Y014794D01*
X007169Y014794D01*
X007100Y014725D01*
X007100Y014589D01*
X007169Y014520D01*
X007305Y014520D01*
X007374Y014589D01*
X007374Y014725D01*
X006959Y014657D02*
X006959Y014589D01*
X006891Y014520D01*
X006686Y014520D01*
X006686Y014930D01*
X006891Y014930D01*
X006959Y014862D01*
X006959Y014794D01*
X006891Y014725D01*
X006686Y014725D01*
X006891Y014725D02*
X006959Y014657D01*
X006131Y014657D02*
X005857Y014657D01*
X005857Y014725D02*
X005926Y014794D01*
X006062Y014794D01*
X006131Y014725D01*
X006131Y014657D01*
X006062Y014520D02*
X005926Y014520D01*
X005857Y014589D01*
X005857Y014725D01*
X005717Y014794D02*
X005512Y014657D01*
X005717Y014520D01*
X005512Y014520D02*
X005512Y014930D01*
X005371Y014725D02*
X005303Y014794D01*
X005166Y014794D01*
X005098Y014725D01*
X005098Y014589D01*
X005166Y014520D01*
X005303Y014520D01*
X005371Y014589D01*
X005371Y014725D01*
X004957Y014725D02*
X004957Y014589D01*
X004888Y014520D01*
X004683Y014520D01*
X004683Y014383D02*
X004683Y014794D01*
X004888Y014794D01*
X004957Y014725D01*
X004543Y014725D02*
X004543Y014657D01*
X004269Y014657D01*
X004269Y014725D02*
X004337Y014794D01*
X004474Y014794D01*
X004543Y014725D01*
X004474Y014520D02*
X004337Y014520D01*
X004269Y014589D01*
X004269Y014725D01*
X004128Y014794D02*
X003923Y014794D01*
X003855Y014725D01*
X003923Y014657D01*
X004060Y014657D01*
X004128Y014589D01*
X004060Y014520D01*
X003855Y014520D01*
X003714Y014589D02*
X003714Y014725D01*
X003645Y014794D01*
X003509Y014794D01*
X003440Y014725D01*
X003440Y014589D01*
X003509Y014520D01*
X003645Y014520D01*
X003714Y014589D01*
X003300Y014520D02*
X003300Y014930D01*
X003026Y014930D02*
X003300Y014520D01*
X003026Y014520D02*
X003026Y014930D01*
X002471Y014930D02*
X002471Y014520D01*
X002266Y014520D01*
X002197Y014589D01*
X002197Y014725D01*
X002266Y014794D01*
X002471Y014794D01*
X002057Y014725D02*
X001988Y014794D01*
X001851Y014794D01*
X001783Y014725D01*
X001783Y014589D01*
X001851Y014520D01*
X001988Y014520D01*
X002057Y014589D01*
X002057Y014725D01*
X001642Y014725D02*
X001642Y014589D01*
X001574Y014520D01*
X001369Y014520D01*
X001369Y014383D02*
X001369Y014794D01*
X001574Y014794D01*
X001642Y014725D01*
X001228Y014657D02*
X001228Y014589D01*
X001159Y014520D01*
X000954Y014520D01*
X000954Y014930D01*
X001159Y014930D01*
X001228Y014862D01*
X001228Y014794D01*
X001159Y014725D01*
X000954Y014725D01*
X001159Y014725D02*
X001228Y014657D01*
X003754Y013994D02*
X003891Y013720D01*
X004028Y013994D01*
X004169Y013994D02*
X004305Y014130D01*
X004305Y013720D01*
X004169Y013720D02*
X004442Y013720D01*
X004583Y013720D02*
X004651Y013720D01*
X004651Y013789D01*
X004583Y013789D01*
X004583Y013720D01*
X004790Y013720D02*
X005064Y013720D01*
X004927Y013720D02*
X004927Y014130D01*
X004790Y013994D01*
X004771Y010530D02*
X004771Y010257D01*
X004634Y010120D01*
X004497Y010257D01*
X004497Y010530D01*
X004083Y010530D02*
X004083Y010120D01*
X004357Y010120D01*
X003942Y010120D02*
X003942Y010394D01*
X003805Y010530D01*
X003669Y010394D01*
X003669Y010120D01*
X003528Y010257D02*
X003528Y010530D01*
X003669Y010325D02*
X003942Y010325D01*
X003528Y010257D02*
X003391Y010120D01*
X003254Y010257D01*
X003254Y010530D01*
X004912Y010530D02*
X004912Y010120D01*
X005185Y010120D01*
X005048Y010325D02*
X004912Y010325D01*
X004912Y010530D02*
X005185Y010530D01*
D12*
X007054Y004400D02*
X007056Y004450D01*
X007062Y004500D01*
X007072Y004549D01*
X007086Y004597D01*
X007103Y004644D01*
X007124Y004689D01*
X007149Y004733D01*
X007177Y004774D01*
X007209Y004813D01*
X007243Y004850D01*
X007280Y004884D01*
X007320Y004914D01*
X007362Y004941D01*
X007406Y004965D01*
X007452Y004986D01*
X007499Y005002D01*
X007547Y005015D01*
X007597Y005024D01*
X007646Y005029D01*
X007697Y005030D01*
X007747Y005027D01*
X007796Y005020D01*
X007845Y005009D01*
X007893Y004994D01*
X007939Y004976D01*
X007984Y004954D01*
X008027Y004928D01*
X008068Y004899D01*
X008107Y004867D01*
X008143Y004832D01*
X008175Y004794D01*
X008205Y004754D01*
X008232Y004711D01*
X008255Y004667D01*
X008274Y004621D01*
X008290Y004573D01*
X008302Y004524D01*
X008310Y004475D01*
X008314Y004425D01*
X008314Y004375D01*
X008310Y004325D01*
X008302Y004276D01*
X008290Y004227D01*
X008274Y004179D01*
X008255Y004133D01*
X008232Y004089D01*
X008205Y004046D01*
X008175Y004006D01*
X008143Y003968D01*
X008107Y003933D01*
X008068Y003901D01*
X008027Y003872D01*
X007984Y003846D01*
X007939Y003824D01*
X007893Y003806D01*
X007845Y003791D01*
X007796Y003780D01*
X007747Y003773D01*
X007697Y003770D01*
X007646Y003771D01*
X007597Y003776D01*
X007547Y003785D01*
X007499Y003798D01*
X007452Y003814D01*
X007406Y003835D01*
X007362Y003859D01*
X007320Y003886D01*
X007280Y003916D01*
X007243Y003950D01*
X007209Y003987D01*
X007177Y004026D01*
X007149Y004067D01*
X007124Y004111D01*
X007103Y004156D01*
X007086Y004203D01*
X007072Y004251D01*
X007062Y004300D01*
X007056Y004350D01*
X007054Y004400D01*
X011554Y004400D02*
X011556Y004450D01*
X011562Y004500D01*
X011572Y004549D01*
X011586Y004597D01*
X011603Y004644D01*
X011624Y004689D01*
X011649Y004733D01*
X011677Y004774D01*
X011709Y004813D01*
X011743Y004850D01*
X011780Y004884D01*
X011820Y004914D01*
X011862Y004941D01*
X011906Y004965D01*
X011952Y004986D01*
X011999Y005002D01*
X012047Y005015D01*
X012097Y005024D01*
X012146Y005029D01*
X012197Y005030D01*
X012247Y005027D01*
X012296Y005020D01*
X012345Y005009D01*
X012393Y004994D01*
X012439Y004976D01*
X012484Y004954D01*
X012527Y004928D01*
X012568Y004899D01*
X012607Y004867D01*
X012643Y004832D01*
X012675Y004794D01*
X012705Y004754D01*
X012732Y004711D01*
X012755Y004667D01*
X012774Y004621D01*
X012790Y004573D01*
X012802Y004524D01*
X012810Y004475D01*
X012814Y004425D01*
X012814Y004375D01*
X012810Y004325D01*
X012802Y004276D01*
X012790Y004227D01*
X012774Y004179D01*
X012755Y004133D01*
X012732Y004089D01*
X012705Y004046D01*
X012675Y004006D01*
X012643Y003968D01*
X012607Y003933D01*
X012568Y003901D01*
X012527Y003872D01*
X012484Y003846D01*
X012439Y003824D01*
X012393Y003806D01*
X012345Y003791D01*
X012296Y003780D01*
X012247Y003773D01*
X012197Y003770D01*
X012146Y003771D01*
X012097Y003776D01*
X012047Y003785D01*
X011999Y003798D01*
X011952Y003814D01*
X011906Y003835D01*
X011862Y003859D01*
X011820Y003886D01*
X011780Y003916D01*
X011743Y003950D01*
X011709Y003987D01*
X011677Y004026D01*
X011649Y004067D01*
X011624Y004111D01*
X011603Y004156D01*
X011586Y004203D01*
X011572Y004251D01*
X011562Y004300D01*
X011556Y004350D01*
X011554Y004400D01*
D13*
X002945Y007083D02*
X002945Y007398D01*
X005701Y007398D01*
X005701Y007083D01*
X002945Y007083D01*
X002945Y007398D02*
X002945Y009839D01*
X005701Y009839D01*
X005701Y007398D01*
X006934Y008337D02*
X006934Y003219D01*
X012934Y003219D01*
X012934Y008337D01*
X006934Y008337D01*
X005529Y015483D02*
X005529Y015798D01*
X014214Y015798D01*
X014214Y015483D01*
X005529Y015483D01*
X005529Y015798D02*
X005529Y018239D01*
X014214Y018239D01*
X014214Y015798D01*
X015334Y016650D02*
X015334Y017150D01*
X015584Y017400D01*
X016084Y017400D01*
X016334Y017150D01*
X016334Y016650D01*
X016084Y016400D01*
X015584Y016400D01*
X015334Y016650D01*
X016962Y013340D02*
X017907Y013340D01*
X017907Y010860D01*
X016962Y010860D01*
X016962Y013340D01*
X016407Y009240D02*
X015462Y009240D01*
X015462Y006760D01*
X016407Y006760D01*
X016407Y009240D01*
X014907Y009240D02*
X014907Y006760D01*
X013962Y006760D01*
X013962Y009240D01*
X014907Y009240D01*
D14*
X013759Y009150D02*
X013759Y009059D01*
X013714Y009014D01*
X013534Y009195D01*
X013714Y009195D01*
X013759Y009150D01*
X013714Y009014D02*
X013534Y009014D01*
X013489Y009059D01*
X013489Y009150D01*
X013534Y009195D01*
X013489Y008900D02*
X013489Y008720D01*
X013624Y008720D01*
X013579Y008810D01*
X013579Y008855D01*
X013624Y008900D01*
X013714Y008900D01*
X013759Y008855D01*
X013759Y008765D01*
X013714Y008720D01*
X013759Y008605D02*
X013759Y008425D01*
X013759Y008515D02*
X013489Y008515D01*
X013579Y008425D01*
X013579Y007250D02*
X013534Y007250D01*
X013489Y007205D01*
X013489Y007115D01*
X013534Y007070D01*
X013534Y006955D02*
X013489Y006910D01*
X013489Y006775D01*
X013759Y006775D01*
X013669Y006775D02*
X013669Y006910D01*
X013624Y006955D01*
X013534Y006955D01*
X013669Y006865D02*
X013759Y006955D01*
X013759Y007070D02*
X013579Y007250D01*
X013759Y007250D02*
X013759Y007070D01*
X016589Y007110D02*
X016589Y006975D01*
X016859Y006975D01*
X016769Y006975D02*
X016769Y007110D01*
X016724Y007155D01*
X016634Y007155D01*
X016589Y007110D01*
X016634Y007270D02*
X016589Y007315D01*
X016589Y007405D01*
X016634Y007450D01*
X016679Y007450D01*
X016724Y007405D01*
X016769Y007450D01*
X016814Y007450D01*
X016859Y007405D01*
X016859Y007315D01*
X016814Y007270D01*
X016859Y007155D02*
X016769Y007065D01*
X016724Y007360D02*
X016724Y007405D01*
X016679Y008325D02*
X016589Y008415D01*
X016859Y008415D01*
X016859Y008325D02*
X016859Y008505D01*
X016814Y008620D02*
X016859Y008665D01*
X016859Y008755D01*
X016814Y008800D01*
X016724Y008800D01*
X016679Y008755D01*
X016679Y008710D01*
X016724Y008620D01*
X016589Y008620D01*
X016589Y008800D01*
X016589Y008914D02*
X016859Y008914D01*
X016769Y008914D02*
X016589Y009095D01*
X016724Y008959D02*
X016859Y009095D01*
X016659Y010875D02*
X016389Y010875D01*
X016389Y011010D01*
X016434Y011055D01*
X016524Y011055D01*
X016569Y011010D01*
X016569Y010875D01*
X016569Y010965D02*
X016659Y011055D01*
X016659Y011170D02*
X016659Y011350D01*
X016659Y011260D02*
X016389Y011260D01*
X016479Y011170D01*
X018189Y011625D02*
X018324Y011625D01*
X018279Y011715D01*
X018279Y011760D01*
X018324Y011805D01*
X018414Y011805D01*
X018459Y011760D01*
X018459Y011670D01*
X018414Y011625D01*
X018189Y011625D02*
X018189Y011805D01*
X018324Y011920D02*
X018234Y012010D01*
X018189Y012100D01*
X018234Y012214D02*
X018189Y012259D01*
X018189Y012350D01*
X018234Y012395D01*
X018414Y012214D01*
X018459Y012259D01*
X018459Y012350D01*
X018414Y012395D01*
X018234Y012395D01*
X018234Y012214D02*
X018414Y012214D01*
X018414Y012100D02*
X018369Y012100D01*
X018324Y012055D01*
X018324Y011920D01*
X018414Y011920D01*
X018459Y011965D01*
X018459Y012055D01*
X018414Y012100D01*
D15*
X016241Y017735D02*
X016056Y017735D01*
X016056Y018105D01*
X016241Y018105D01*
X016303Y018044D01*
X016303Y017797D01*
X016241Y017735D01*
X015934Y017735D02*
X015934Y018105D01*
X015688Y018105D02*
X015688Y017735D01*
X015566Y017797D02*
X015566Y017920D01*
X015443Y017920D01*
X015566Y017797D02*
X015504Y017735D01*
X015381Y017735D01*
X015319Y017797D01*
X015319Y018044D01*
X015381Y018105D01*
X015504Y018105D01*
X015566Y018044D01*
X015688Y018105D02*
X015934Y017735D01*
M02*
