%
M48
M72
T01C0.0354
T02C0.0394
T03C0.0400
T04C0.0472
T05C0.1260
%
T01
X14434Y5002
X15934Y5002
X17434Y7502
X15934Y9002
X14434Y9002
X17434Y11502
T02
X11784Y7902
X10784Y7902
X9784Y7902
X8784Y7902
X8284Y6902
X9284Y6902
X10284Y6902
X11284Y6902
T03
X15834Y15902
T04
X3564Y7502
X5082Y7502
X6434Y16002
X7812Y16002
X9190Y16002
X10568Y16002
X11946Y16002
X13324Y16002
T05
X12284Y4402
X7784Y4402
M30
