%
M48
M72
T01C0.0354
T02C0.0394
T03C0.0400
T04C0.1260
T05C0.1500
%
T01
X14077Y9402
X15577Y9402
X17077Y9402
X17077Y13402
X15577Y5402
X14077Y5402
T02
X11327Y7902
X10827Y6902
X9827Y6902
X8827Y6902
X8327Y7902
X9327Y7902
X10327Y7902
X7827Y6902
T03
X12077Y16902
X11077Y16902
X10077Y16902
X9077Y16902
X8077Y16902
X7077Y16902
X4577Y8402
X3577Y8402
T04
X7327Y4402
X11827Y4402
T05
X14577Y11402
X4577Y11402
M30
